<svg viewBox="0 0 92.4002 18.8881" fill="none" xmlns="http://www.w3.org/2000/svg">
<path d="M14.6177 0.340404H20.9299V18.7179H17.1758V3.50894L12.4251 18.6846H8.53809L3.7541 3.54229V18.7179H0V0.340404H6.41187L10.5314 14.4154L14.6177 0.340404Z" fill="#F896BF"/>
<path d="M22.4614 10.4284V0.170254H26.2191V10.162C26.2191 13.7923 27.6491 15.6241 30.4424 15.6241C33.2358 15.6241 34.6657 13.7923 34.6657 10.162V0.170254H38.4567V10.4284C38.4567 15.8906 35.5635 18.8881 30.4424 18.8881C25.3213 18.8881 22.4614 15.8906 22.4614 10.4284Z" fill="#F896BF"/>
<path d="M40.0129 12.5836H43.8263C43.6925 14.7417 45.1308 15.9702 47.7065 15.9702C49.9477 15.9702 51.2857 15.0073 51.2857 13.5796C51.2857 9.4958 40.2471 12.982 40.2471 5.8104C40.2471 2.1914 43.0904 8.13901e-05 47.4724 8.13901e-05C52.2558 8.13901e-05 55.166 2.58982 54.6977 6.47444H50.8509C51.1519 4.31632 49.8139 3.12105 47.372 3.12105C45.3315 3.12105 44.0604 4.0175 44.0604 5.37878C44.0604 9.4626 55.1326 6.07601 55.1326 13.148C55.1326 16.8334 52.1889 19.0579 47.6062 19.0579C42.7559 19.0911 39.6784 16.5678 40.0129 12.5836Z" fill="#F896BF"/>
<path d="M69.6302 10.2643L69.2986 10.0304L68.768 9.59599L68.7016 9.52916L68.768 9.46234L69.2986 9.02796L69.6302 8.79406C71.8851 7.02314 73.2116 4.18298 73.4769 0.607714L73.5101 0.340404H69.9618L69.9286 0.5743C69.5307 4.28322 67.143 7.08997 63.8269 7.658C63.3958 7.72483 62.9315 7.75824 62.3346 7.75824H60.1128V3.04691H56.664V16.0448H60.146V11.3001H62.3678C62.9647 11.3001 63.429 11.3335 63.8601 11.4003C67.1762 12.0018 69.5638 14.7751 69.9618 18.484L69.9949 18.7179H73.5101L73.4769 18.4506C73.2448 14.8754 71.9183 12.0352 69.6302 10.2643Z" fill="#F896BF"/>
<path d="M92.4 0.382082L85.3677 11.3387V18.6763H81.6194V11.3055L74.4213 0.382082H78.7335L83.4106 8.0185L88.2868 0.382082H92.4Z" fill="#F896BF"/>
</svg>
